<svg width="32" height="32" viewBox="0 0 32 32" fill="none" xmlns="http://www.w3.org/2000/svg">
<g clip-path="url(#clip0_236_3)">
<path d="M0 9.31928V0.99984C0 0.243527 0.897064 -0.26068 1.68199 0.142687L9.6995 4.32761C10.4284 4.73098 10.4284 5.68898 9.6995 6.04193L1.68199 10.1764C0.897064 10.5798 0 10.0756 0 9.31928Z" fill="#E0A64B"/>
<path d="M0 20.1597V11.8403C0 11.084 0.897064 10.5798 1.68199 10.9831L9.6995 15.1681C10.4284 15.5714 10.4284 16.5294 9.6995 16.8824L1.68199 21.0169C0.897064 21.4203 0 20.916 0 20.1597Z" fill="#885C9B"/>
<path d="M0 31.0001V22.6807C0 21.9244 0.897064 21.4202 1.68199 21.8235L9.6995 26.0085C10.4284 26.4118 10.4284 27.3698 9.6995 27.7228L1.68199 31.8573C0.897064 32.2607 0 31.7564 0 31.0001Z" fill="#BF2C68"/>
<path d="M10.5405 14.4622V6.14272C10.5405 5.38641 11.4376 4.8822 12.2225 5.28557L20.24 9.4705C20.9689 9.87387 20.9689 10.8319 20.24 11.1848L12.2225 15.3193C11.4376 15.7227 10.5405 15.2689 10.5405 14.4622Z" fill="#2CA1C3"/>
<path d="M21.7538 20.1597V11.8403C21.7538 11.084 22.6509 10.5798 23.4358 10.9831L31.4533 15.1681C32.1822 15.5714 32.1822 16.5294 31.4533 16.8824L23.4358 21.0169C22.6509 21.4203 21.7538 20.916 21.7538 20.1597Z" fill="#C13245"/>
<path d="M10.5405 25.5548V17.2353C10.5405 16.479 11.4376 15.9748 12.2225 16.3782L20.24 20.5631C20.9689 20.9665 20.9689 21.9245 20.24 22.2774L12.2225 26.4119C11.4376 26.8153 10.5405 26.3111 10.5405 25.5548Z" fill="#ABC238"/>
</g>
<defs>
<clipPath id="clip0_236_3">
<rect width="32" height="32" fill="white"/>
</clipPath>
</defs>
</svg>
