<svg width="146" height="30" viewBox="0 0 146 30" fill="none" xmlns="http://www.w3.org/2000/svg">
<path d="M139.774 12.9024C139.828 12.1139 140.179 11.3752 140.757 10.8357C141.335 10.2961 142.096 9.99603 142.887 9.99603C143.678 9.99603 144.439 10.2961 145.017 10.8357C145.595 11.3752 145.946 12.1139 146 12.9024C145.943 13.6884 145.59 14.4236 145.012 14.9603C144.435 15.4969 143.676 15.7952 142.887 15.7952C142.098 15.7952 141.339 15.4969 140.762 14.9603C140.184 14.4236 139.831 13.6884 139.774 12.9024ZM140.289 12.9024C140.334 13.5574 140.627 14.1708 141.107 14.6187C141.587 15.0667 142.22 15.3158 142.877 15.3158C143.534 15.3158 144.166 15.0667 144.646 14.6187C145.127 14.1708 145.419 13.5574 145.464 12.9024C145.419 12.2475 145.127 11.6341 144.646 11.1861C144.166 10.7382 143.534 10.4891 142.877 10.4891C142.22 10.4891 141.587 10.7382 141.107 11.1861C140.627 11.6341 140.334 12.2475 140.289 12.9024ZM144.306 14.46H143.601L143.134 13.3606C143.076 13.2576 143.076 13.2422 142.92 13.2422H142.366V14.46H141.765V11.3109C142.24 11.281 142.579 11.2625 142.92 11.2625C143.601 11.2625 144.216 11.4684 144.216 12.2539C144.221 12.4303 144.173 12.6042 144.078 12.7528C143.983 12.9015 143.845 13.0179 143.682 13.0867C143.937 13.5345 144.29 14.425 144.306 14.46ZM142.366 11.8246V12.713H142.971C143.345 12.713 143.612 12.6101 143.612 12.3012C143.612 11.9131 143.382 11.8091 142.939 11.8091C142.739 11.8091 142.56 11.8091 142.366 11.8235" fill="white"/>
<path d="M107.931 4.645H104.135V24.1268H107.931V4.645Z" fill="#D8E046"/>
<path d="M95.4513 12.9797C93.8279 12.9797 92.7668 13.5973 92.7668 15.3073V18.3165C92.7668 20.1891 93.3664 21.3792 95.3998 21.3792C97.9473 21.3792 98.2996 19.105 98.2996 17.0173C98.2996 14.8749 98.0009 12.9797 95.4513 12.9797ZM96.2661 24.201C95.6062 24.2731 94.9394 24.1557 94.3438 23.8624C93.7483 23.5692 93.2488 23.1124 92.9039 22.5456H92.8482V29.4328H89.0265V10.2948H92.2538L92.4959 11.8956H92.5515C92.9632 11.2627 93.5381 10.7525 94.2156 10.4188C94.8931 10.085 95.6481 9.94013 96.4011 9.99931C100.55 9.99931 102.177 13.2514 102.177 16.9658C102.177 20.8407 100.576 24.201 96.2661 24.201Z" fill="#5BC7E4"/>
<path d="M131.991 24.4408C130.202 28.9705 129.336 30 126.025 30C125.336 29.9965 124.648 29.9518 123.965 29.8662V26.6913C124.468 26.7496 124.975 26.7771 125.482 26.7736C126.945 26.7736 127.301 26.3937 127.787 25.1748L128.414 23.6306L123.07 10.2948H127.219L130.366 19.7021H130.422L133.484 10.2948H137.575L131.991 24.4408Z" fill="#E31E2D"/>
<path d="M122.227 20.6997V15.4741C122.227 11.5693 120.737 9.99726 116.752 9.99726C114.472 9.98817 112.225 10.5472 110.216 11.6238L111.409 14.2263C112.926 13.3433 114.642 12.8584 116.397 12.817C117.778 12.817 118.404 13.2226 118.404 14.4971V15.1446C115.016 15.121 109.89 15.5811 109.89 20.0779C109.89 22.7092 111.707 24.2267 114.282 24.2267C115.933 24.2267 117.533 23.6589 118.814 22.6186C118.822 22.685 118.834 22.7508 118.851 22.8153C119.263 24.1268 121.517 24.2154 123.221 24.1268L123.358 21.2289C122.643 21.2062 122.225 21.1136 122.225 20.6997M118.484 20.5669C117.595 21.2467 116.512 21.6263 115.393 21.6509C115.149 21.668 114.904 21.6316 114.675 21.5443C114.447 21.457 114.24 21.3208 114.069 21.1453C113.899 20.9699 113.769 20.7593 113.688 20.5284C113.607 20.2974 113.578 20.0516 113.602 19.8082C113.602 17.3436 116.692 17.3168 118.484 17.3168V20.5669Z" fill="#FCBD3F"/>
<path d="M49.6381 13.0054C47.2503 13.0054 46.5179 14.4415 46.5179 17.0986C46.5179 19.8082 47.2801 21.2989 49.6649 21.2989C51.9981 21.2989 52.7552 19.838 52.7552 17.0986C52.7552 14.4415 52.0238 13.0054 49.6401 13.0054M49.6401 24.1989C44.9212 24.1989 42.6457 21.3236 42.6457 17.0955C42.6457 13.1392 44.6791 9.99211 49.6401 9.99211C54.2241 9.99211 56.6088 12.7027 56.6088 17.0955C56.6088 21.2958 54.3848 24.1989 49.6401 24.1989Z" fill="white"/>
<path d="M30.5449 5.82169V9.2097H35.6419V24.1268H39.6594V9.2097H44.7533V5.82169H30.5449Z" fill="white"/>
<path d="M65.5399 20.9807C63.5889 21.0291 63.4024 20.7749 63.387 19.6188V13.3575H66.533V10.2948H63.387V6.6916H59.6157V10.2948H57.368V13.3595H59.591V19.8452C59.591 23.12 60.4862 24.1505 64.174 24.1505C64.9631 24.1276 65.7504 24.0641 66.533 23.9601V20.9149C66.2497 20.9437 66.0179 20.9705 65.5399 20.9807Z" fill="white"/>
<path d="M86.8828 4.645H83.0848V24.1268H86.8828V4.645Z" fill="white"/>
<path d="M80.4261 20.6997V15.4741C80.4261 11.5693 78.9345 9.99725 74.948 9.99725C72.6679 9.98856 70.4216 10.5476 68.4119 11.6238L69.6027 14.2263C71.1211 13.3433 72.8383 12.8584 74.5946 12.817C75.9801 12.817 76.6023 13.2226 76.6023 14.4971V15.1446C73.2122 15.121 68.0884 15.5811 68.0884 20.0779C68.0884 22.7092 69.9035 24.2267 72.4798 24.2267C74.1305 24.2264 75.7309 23.6586 77.0123 22.6186C77.0181 22.6849 77.0292 22.7507 77.0453 22.8153C77.4573 24.1268 79.7163 24.2154 81.416 24.1268L81.5541 21.2289C80.8412 21.2062 80.4292 21.1136 80.4292 20.6997M76.6868 20.5669C75.7975 21.2461 74.7154 21.6256 73.5964 21.6509C73.3523 21.668 73.1073 21.6316 72.8787 21.5443C72.6501 21.457 72.4433 21.3208 72.2728 21.1453C72.1023 20.9698 71.9722 20.7592 71.8916 20.5283C71.811 20.2973 71.7818 20.0516 71.8061 19.8082C71.8061 17.3436 74.8964 17.3168 76.6868 17.3168V20.5669Z" fill="white"/>
<path d="M7.82886 5.19988C7.94401 5.15964 8.04379 5.08462 8.11439 4.9852C8.18499 4.88579 8.22291 4.7669 8.22291 4.64499C8.22291 4.52308 8.18499 4.40419 8.11439 4.30477C8.04379 4.20536 7.94401 4.13034 7.82886 4.0901L0.962126 0.1297C0.432648 -0.175025 0 0.0761675 0 0.684589V8.61156C0 9.22101 0.432648 9.47118 0.962126 9.16748L7.82886 5.19988Z" fill="#FCBD3F"/>
<path d="M7.82886 15.3392C7.94389 15.2987 8.04351 15.2235 8.11398 15.1241C8.18445 15.0246 8.2223 14.9057 8.2223 14.7838C8.2223 14.6619 8.18445 14.543 8.11398 14.4436C8.04351 14.3441 7.94389 14.2689 7.82886 14.2284L0.962126 10.2701C0.432648 9.96534 0 10.2155 0 10.8239V18.7509C0 19.3634 0.432648 19.6105 0.962126 19.3037L7.82886 15.3392Z" fill="#7F4C9C"/>
<path d="M7.82886 25.4816C7.94388 25.4417 8.04361 25.367 8.11418 25.2678C8.18476 25.1686 8.22268 25.05 8.22268 24.9283C8.22268 24.8066 8.18476 24.6879 8.11418 24.5888C8.04361 24.4896 7.94388 24.4149 7.82886 24.3749L0.962126 20.4114C0.432648 20.1026 0 20.3559 0 20.9663V28.8933C0 29.5017 0.432648 29.754 0.962126 29.4482L7.82886 25.4816Z" fill="#ED4F96"/>
<path d="M8.78481 13.6756C8.78481 14.2881 9.21848 14.5372 9.74796 14.2305L16.6137 10.2701C16.7293 10.2303 16.8296 10.1555 16.9006 10.056C16.9717 9.95653 17.0098 9.83738 17.0098 9.71517C17.0098 9.59297 16.9717 9.47382 16.9006 9.37435C16.8296 9.27487 16.7293 9.20004 16.6137 9.16029L9.74796 5.19989C9.21848 4.89722 8.78481 5.1443 8.78481 5.75581V13.6756Z" fill="#5BC7E4"/>
<path d="M8.78481 23.819C8.78481 24.4305 9.21848 24.6786 9.74796 24.3749L16.6137 20.4114C16.7297 20.3719 16.8304 20.2971 16.9017 20.1975C16.973 20.0979 17.0113 19.9785 17.0113 19.856C17.0113 19.7336 16.973 19.6142 16.9017 19.5146C16.8304 19.415 16.7297 19.3402 16.6137 19.3006L9.74796 15.3392C9.21848 15.0304 8.78481 15.2836 8.78481 15.8941V23.819Z" fill="#D8E046"/>
<path d="M17.5748 18.7478C17.5748 19.3603 18.0053 19.6074 18.5369 19.3006L25.4016 15.3392C25.5176 15.2997 25.6183 15.2249 25.6896 15.1253C25.7609 15.0257 25.7992 14.9063 25.7992 14.7838C25.7992 14.6613 25.7609 14.5419 25.6896 14.4423C25.6183 14.3427 25.5176 14.2679 25.4016 14.2284L18.542 10.2701C18.0105 9.96122 17.5799 10.2155 17.5799 10.826L17.5748 18.7478Z" fill="#E31E2D"/>
</svg>
